<svg width="512.00003" height="512" xmlns="http://www.w3.org/2000/svg">

 <g>
  <title>background</title>
  <rect fill="none" id="canvas_background" height="402" width="582" y="-1" x="-1"/>
 </g>
 <g>
  <title>Layer 1</title>
  <path fill="#ff7f00" fill-rule="nonzero" id="path5114" d="m512.000027,255.999975c0,141.384911 -114.61511,256.000022 -256.000049,256.000022c-141.384856,0 -255.999973,-114.61511 -255.999973,-256.000022c0,-141.384904 114.615117,-256.000015 255.999973,-256.000015c141.384939,0 256.000049,114.61511 256.000049,256.000015z"/>
  <path fill="#ffffff" id="path3265" d="m210.724079,332.629731c0,0 -13.183922,7.666909 9.382548,10.26129c27.338644,3.118837 41.311109,2.671562 71.43848,-3.030498c0,0 7.920768,4.96652 18.98269,9.268172c-67.537609,28.945487 -152.850916,-1.676584 -99.803718,-16.498965"/>
  <path fill="#ffffff" id="path3267" d="m202.471343,294.857768c0,0 -14.787045,10.945686 7.796163,13.28156c29.203995,3.01283 52.267024,3.25925 92.174935,-4.425327c0,0 5.519802,5.596053 14.199357,8.656307c-81.656996,23.877609 -172.608201,1.883019 -114.170455,-17.51254"/>
  <path fill="#ffffff" id="path3269" d="m272.044472,230.783983c16.641237,19.159368 -4.372323,36.400382 -4.372323,36.400382c0,0 42.254943,-21.813262 22.849155,-49.128659c-18.124405,-25.473293 -32.023409,-38.129969 43.220164,-81.768582c0,0 -118.107591,29.497839 -61.696996,94.49686"/>
  <path fill="#ffffff" id="path3271" d="m361.368377,360.568151c0,0 9.756362,8.038863 -10.744831,14.25794c-38.983604,11.80955 -162.253922,15.375663 -196.497899,0.470522c-12.309829,-5.355213 10.774587,-12.78686 18.036066,-14.346279c7.57299,-1.642178 11.900679,-1.336246 11.900679,-1.336246c-13.689779,-9.643846 -88.485148,18.936195 -37.992346,27.121051c137.701216,22.331209 251.016176,-10.055786 215.298331,-26.166988"/>
  <path fill="#ffffff" id="path3273" d="m217.064041,255.721662c0,0 -62.703133,14.893052 -22.204744,20.301268c17.099671,2.289379 51.187426,1.771433 82.939309,-0.888971c25.949395,-2.188951 52.005726,-6.84303 52.005726,-6.84303c0,0 -9.150077,3.918539 -15.769934,8.438714c-63.673934,16.746314 -186.680164,8.955731 -151.268251,-8.173697c29.947904,-14.476463 54.297895,-12.834285 54.297895,-12.834285"/>
  <path fill="#ffffff" id="path3275" d="m329.545823,318.594964c64.727494,-33.634901 34.800048,-65.957733 13.911092,-61.603078c-5.119951,1.065649 -7.402821,1.989026 -7.402821,1.989026c0,0 1.900687,-2.977494 5.530961,-4.266316c41.325057,-14.528537 73.106696,42.85007 -13.340142,65.57555c0,0 1.001487,-0.89455 1.30091,-1.695182"/>
  <path fill="#ffffff" id="path3277" d="m290.521304,65.822233c0,0 35.8471,35.859188 -33.999416,91.000489c-56.009814,44.23281 -12.771982,69.453174 -0.023247,98.268477c-32.693857,-29.497839 -56.686771,-55.464901 -40.590447,-79.632635c23.62561,-35.476075 89.076555,-52.676174 74.613111,-109.636331"/>
  <path fill="#ffffff" id="path3279" d="m223.42446,409.737725c62.130323,3.977122 157.538471,-2.206619 159.798094,-31.60496c0,0 -4.343497,11.144682 -51.347367,19.995335c-53.02953,9.979535 -118.433981,8.814388 -157.226029,2.418633c0,-0.00093 7.941225,6.572433 48.775302,9.190992"/>
 </g>
</svg>